<svg preserveAspectRatio="none" width="100%" height="100%" overflow="visible" style="display: block;" viewBox="0 0 73.1285 28.7992" fill="none" xmlns="http://www.w3.org/2000/svg">
<g id="Group 68">
<path id="Vector" fill-rule="evenodd" clip-rule="evenodd" d="M1.62166 14.62L1.32144 14.3091C1.59544 14.0233 1.92212 13.7963 2.28244 13.6414C2.64277 13.4865 3.02954 13.4067 3.42021 13.4067C3.81088 13.4067 4.19765 13.4865 4.55798 13.6414C4.9183 13.7963 5.24498 14.0233 5.51898 14.3091L5.21326 14.6087C4.97894 14.366 4.70008 14.1734 4.3928 14.0419C4.08551 13.9104 3.75589 13.8427 3.42296 13.8427C3.09004 13.8427 2.76042 13.9104 2.45313 14.0419C2.14585 14.1734 1.86699 14.366 1.63267 14.6087M2.69032 15.649L2.41489 15.3663C2.54866 15.2247 2.70877 15.1122 2.88572 15.0353C3.06267 14.9585 3.25286 14.9189 3.445 14.9189C3.63714 14.9189 3.82733 14.9585 4.00428 15.0353C4.18123 15.1122 4.34134 15.2247 4.47511 15.3663L4.19968 15.649C4.00064 15.4475 3.73278 15.3339 3.45326 15.3324C3.31455 15.3313 3.17703 15.3588 3.04883 15.4131C2.92064 15.4675 2.80435 15.5477 2.70685 15.649M3.45326 16.4065L2.91893 15.8694C3.06389 15.7284 3.25371 15.6461 3.45326 15.6376C3.65164 15.644 3.84042 15.7268 3.98209 15.8694L3.45326 16.4065ZM3.45326 14.6087C3.68595 14.6067 3.91654 14.6539 4.13071 14.7473C4.34488 14.8406 4.53805 14.9782 4.6982 15.1515L5.03147 14.8094C4.82601 14.5914 4.57992 14.4181 4.30784 14.2997C4.03577 14.1813 3.74327 14.1203 3.44775 14.1203C3.15224 14.1203 2.85974 14.1813 2.58766 14.2997C2.31559 14.4181 2.0695 14.5914 1.86403 14.8094L2.19455 15.1543C2.35675 14.9805 2.55178 14.8425 2.76774 14.7486C2.98369 14.6548 3.21601 14.6072 3.45051 14.6087" fill="var(--fill-0, #0E6EB6)"/>
<path id="Vector_2" fill-rule="evenodd" clip-rule="evenodd" d="M1.43699 16.7796H5.36186C2.54697 24.0866 2.0567 28.369 4.91291 28.2559C-1.35311 28.6347 -0.540597 22.3877 1.43974 16.7796" fill="var(--fill-0, #0E6EB6)"/>
<path id="Vector_3" fill-rule="evenodd" clip-rule="evenodd" d="M5.04495 5.57191C8.62553 -0.414997 14.4316 -1.02556 18.5685 1.15381C23.1572 3.57627 24.5729 9.18158 23.4299 14.117C22.4245 18.6057 19.5436 22.7072 15.8197 25.3445C13.5404 26.9314 10.9506 27.9878 8.23167 28.4398C10.3162 27.742 12.1816 26.4862 13.6356 24.8018C14.538 23.7962 15.3194 22.683 15.963 21.4861C18.0755 18.5633 19.0533 15.6999 19.1221 13.2068C19.2599 9.86281 17.8414 6.54429 14.8475 5.0094C12.2419 3.64977 8.73295 3.72044 5.04495 5.57474" fill="var(--fill-0, #F26329)"/>
<path id="Vector_4" fill-rule="evenodd" clip-rule="evenodd" d="M2.34046 12.3249C5.26001 6.38883 11.2726 5.9733 14.8147 8.54276C16.2106 9.55937 17.1915 11.0693 17.569 12.7828C18.051 14.965 17.6984 17.2263 16.8997 19.3831C16.165 21.3897 15.0564 23.2303 13.6358 24.8018C11.6197 27.0886 8.73318 28.8327 5.64837 28.7987C4.41552 28.8054 3.20391 28.4694 2.14215 27.8264C3.59917 28.5472 5.86596 28.2928 7.25137 27.7246C9.54294 26.7607 11.3828 24.7622 12.5313 22.5518C13.9498 19.8438 15.0681 15.4851 12.8068 12.9891C10.7548 10.6712 6.66195 9.87978 2.34046 12.322" fill="var(--fill-0, #09A14A)"/>
<path id="Vector_5" d="M70.9223 15.7253L71.6164 13.6816C71.5337 13.6816 71.4456 13.6816 71.3712 13.6816C71.1554 13.6726 70.94 13.7094 70.7386 13.7897C70.5372 13.8699 70.3541 13.9919 70.2007 14.148C69.8932 14.4592 69.684 14.8581 69.6002 15.2928C69.5397 15.4899 69.5465 15.7023 69.6195 15.8949C69.6546 15.966 69.7094 16.0249 69.7771 16.0641C69.8447 16.1034 69.9221 16.1212 69.9996 16.1154C70.339 16.0934 70.663 15.9618 70.925 15.7394M73.1285 12.7742L71.6742 16.9634H70.4926L70.6276 16.5648C70.2723 16.8559 69.8367 17.025 69.3826 17.0482C69.2028 17.0562 69.0243 17.0119 68.8679 16.9203C68.7115 16.8288 68.5834 16.6938 68.4985 16.5309C68.2972 16.121 68.2568 15.6475 68.3856 15.208C68.5344 14.4633 68.9415 13.7994 69.5314 13.3396C70.185 12.8325 70.9906 12.5756 71.8092 12.6131C72.2484 12.6083 72.6866 12.6567 73.1147 12.7573M68.3002 12.7036L66.8267 16.9634H65.6451L67.1241 12.7036H68.3002ZM67.4959 11.5107C67.5299 11.3322 67.6215 11.1707 67.7559 11.0522C67.8903 10.9337 68.0598 10.8652 68.2369 10.8577C68.3123 10.8556 68.3873 10.8717 68.4556 10.9046C68.524 10.9374 68.584 10.9863 68.6307 11.0471C68.6787 11.1125 68.7111 11.1884 68.7255 11.2689C68.7398 11.3494 68.7357 11.4322 68.7133 11.5107C68.6737 11.6961 68.5771 11.8635 68.4379 11.9884C68.3029 12.103 68.1338 12.1668 67.9587 12.1693C67.8848 12.1713 67.8115 12.1561 67.7442 12.1248C67.6769 12.0934 67.6175 12.0468 67.5703 11.9884C67.5252 11.9189 67.4956 11.8401 67.4837 11.7575C67.4718 11.6749 67.4778 11.5906 67.5015 11.5107M63.7969 15.9599L64.5544 13.7466C64.4569 13.7304 64.3583 13.7229 64.2596 13.724C63.8719 13.7157 63.4932 13.8455 63.1882 14.0915C62.8981 14.3192 62.6953 14.6444 62.6153 15.0101C62.5802 15.1337 62.5737 15.2639 62.5961 15.3905C62.6186 15.5171 62.6695 15.6365 62.7448 15.7394C62.8359 15.8385 62.9476 15.9154 63.0715 15.9643C63.1955 16.0133 63.3285 16.033 63.4609 16.0221C63.5742 16.0155 63.6866 15.9985 63.7969 15.9712M66.8267 10.5525L64.648 16.9153C64.189 17.0027 63.7238 17.0509 63.2571 17.0595C62.5492 17.0595 62.0287 16.8729 61.6927 16.4941C61.3566 16.1154 61.263 15.6263 61.3979 15.0045C61.5372 14.3342 61.8995 13.7345 62.4225 13.3085C62.9625 12.8457 63.6472 12.5987 64.3505 12.6131C64.5404 12.6163 64.7299 12.6314 64.9179 12.6583L65.6423 10.5411L66.8267 10.5525ZM58.7621 12.7036L58.5831 13.1813C59.0085 12.8446 59.523 12.6476 60.0593 12.6159C60.197 12.6026 60.3355 12.628 60.4602 12.6892C60.5849 12.7504 60.691 12.8453 60.7672 12.9636C60.8401 13.1122 60.8837 13.274 60.8956 13.4399C60.9074 13.6058 60.8872 13.7725 60.8361 13.9303C60.8101 14.0597 60.7761 14.1871 60.7342 14.3119L59.828 16.9662H58.6519L59.525 14.4222C59.5573 14.3509 59.5813 14.2759 59.5966 14.1989C59.6793 13.7777 59.5966 13.5713 59.357 13.5713C59.1174 13.5713 58.7015 13.7834 58.2305 14.2271L57.2858 16.9718H56.1042L57.5805 12.7036H58.7621ZM57.082 10.5525L54.8785 16.9747H53.606L55.8095 10.5525H57.082ZM52.1793 10.5525L49.9759 16.9747H48.8053L51.0087 10.5525H52.1793ZM46.9462 15.7366L47.6347 13.6929C47.5521 13.6929 47.464 13.6929 47.3896 13.6929C47.1746 13.6841 46.9601 13.7209 46.7596 13.8012C46.5591 13.8814 46.3769 14.0034 46.2245 14.1593C45.9196 14.4631 45.7088 14.8525 45.6186 15.2787C45.5547 15.4757 45.5636 15.6899 45.6434 15.8807C45.6772 15.9517 45.731 16.0106 45.7978 16.0498C45.8645 16.0891 45.9412 16.107 46.018 16.1012C46.3577 16.0771 46.6819 15.9458 46.9462 15.7253M49.1496 12.7601L47.7036 16.9634H46.5275L46.6652 16.5648C46.3095 16.8532 45.8757 17.022 45.423 17.0482C45.24 17.0594 45.0576 17.0171 44.8972 16.926C44.7367 16.8349 44.6048 16.6988 44.5169 16.5337C44.3198 16.1226 44.2796 15.6508 44.4039 15.2108C44.5518 14.4657 44.9591 13.8015 45.5497 13.3424C46.2054 12.8352 47.0128 12.5783 47.833 12.6159C48.2713 12.6116 48.7085 12.66 49.1358 12.7601M44.0183 11.7934L43.6713 12.7036H44.5389L44.1836 13.6364H43.3105L42.7927 15.0271C42.7473 15.1321 42.7141 15.2421 42.6935 15.355C42.6081 15.7366 42.6935 15.9203 42.9332 15.9203C43.19 15.8823 43.4376 15.7951 43.663 15.6631L43.4234 16.7938C43.0921 16.9684 42.727 17.065 42.3547 17.0764C42.1959 17.088 42.0368 17.058 41.8923 16.9893C41.7478 16.9206 41.6226 16.8154 41.5285 16.6835C41.4436 16.5285 41.3899 16.3575 41.3705 16.1808C41.3511 16.0041 41.3664 15.8252 41.4155 15.6546C41.4513 15.5331 41.4871 15.4087 41.5285 15.2843L42.1592 13.6533H41.3604L41.7075 12.7205H42.5117L42.845 11.8188L44.0183 11.7934ZM41.1401 12.7036L39.6693 16.9634H38.4932L39.9585 12.7036H41.1401ZM40.3276 11.5107C40.3684 11.3298 40.465 11.1672 40.603 11.0471C40.736 10.9299 40.9042 10.863 41.0795 10.8577C41.1555 10.8552 41.2309 10.871 41.2998 10.9039C41.3687 10.9368 41.4291 10.9859 41.4761 11.0471C41.5206 11.1142 41.551 11.1901 41.5652 11.27C41.5794 11.3498 41.5772 11.4318 41.5588 11.5107C41.5147 11.6943 41.4189 11.8604 41.2833 11.9884C41.148 12.1005 40.9807 12.164 40.8068 12.1693C40.7327 12.1731 40.6588 12.1587 40.5913 12.1272C40.5237 12.0957 40.4645 12.0481 40.4185 11.9884C40.371 11.9201 40.339 11.8417 40.3247 11.7591C40.3104 11.6765 40.3142 11.5916 40.3359 11.5107M36.4936 17.9075C36.5322 17.7096 36.3752 17.5626 36.0281 17.4863L35.5351 17.3648C35.373 17.3748 35.2142 17.416 35.0669 17.4863C34.9784 17.5109 34.8978 17.5592 34.8334 17.6263C34.7691 17.6933 34.7232 17.7767 34.7006 17.8679C34.64 18.1675 34.8989 18.3117 35.4828 18.3117C35.7276 18.3222 35.9724 18.2906 36.2072 18.2184C36.2756 18.1959 36.337 18.1553 36.3854 18.1007C36.4337 18.0461 36.4672 17.9795 36.4826 17.9075M36.433 15.0808C36.8599 15.0808 37.1354 14.7699 37.2593 14.1593C37.2813 14.0859 37.2884 14.0088 37.2804 13.9325C37.2723 13.8562 37.2492 13.7823 37.2125 13.7155C37.169 13.659 37.1125 13.6144 37.0481 13.5858C36.9837 13.5572 36.9133 13.5454 36.8434 13.5516C36.4137 13.5516 36.13 13.8597 35.9868 14.49C35.9069 14.8773 36.0474 15.0808 36.422 15.0808M39.2837 12.7036L38.9697 13.6364H38.339C38.3822 13.8622 38.3822 14.0946 38.339 14.3204C38.2431 14.7605 38.0005 15.1523 37.6532 15.4285C37.2808 15.729 36.8185 15.8878 36.3449 15.8779C36.1604 15.8727 35.976 15.886 35.794 15.9175C35.7446 15.9224 35.6981 15.9439 35.6617 15.9786C35.6254 16.0134 35.6012 16.0594 35.593 16.1097C35.5792 16.1606 35.593 16.2058 35.6701 16.2623C35.9405 16.3447 36.2168 16.4051 36.4964 16.4433C36.9839 16.5309 37.3227 16.6722 37.4824 16.9012C37.5703 17.0206 37.63 17.1594 37.6568 17.3065C37.6836 17.4537 37.6767 17.6052 37.6366 17.7492C37.4411 18.6707 36.6589 19.1399 35.2927 19.1399C34.826 19.1757 34.3588 19.0778 33.9431 18.8572C33.8119 18.7824 33.7089 18.6647 33.6505 18.5227C33.5921 18.3808 33.5817 18.223 33.6209 18.0743C33.7118 17.6672 34.1029 17.3365 34.8025 17.1217C34.6596 17.0547 34.5439 16.9388 34.4751 16.7939C34.4062 16.6491 34.3886 16.4841 34.4251 16.3274C34.5105 15.9316 34.8328 15.6687 35.3919 15.5415C35.2032 15.4086 35.0603 15.2178 34.9836 14.9964C34.9069 14.7751 34.9004 14.5345 34.965 14.3091C35.0737 13.8541 35.3363 13.4534 35.7059 13.1784C36.0949 12.8585 36.5819 12.6902 37.0803 12.7036H39.2837ZM34.6014 12.7036L33.1306 16.9747H31.9545L33.406 12.7036H34.6014ZM33.7751 11.5107C33.8163 11.3299 33.9128 11.1674 34.0506 11.0471C34.1824 10.9316 34.3483 10.8649 34.5215 10.8577C34.5973 10.8565 34.6723 10.8729 34.741 10.9057C34.8097 10.9385 34.8703 10.9868 34.9182 11.0471C34.9645 11.1133 34.9954 11.1895 35.0083 11.27C35.0212 11.3504 35.0158 11.4328 34.9925 11.5107C34.9491 11.6945 34.8532 11.8609 34.7171 11.9884C34.5813 12.1034 34.4112 12.1673 34.2351 12.1693C34.1615 12.172 34.0884 12.157 34.0215 12.1256C33.9545 12.0942 33.8957 12.0472 33.8495 11.9884C33.8051 11.9186 33.7749 11.8403 33.7607 11.7582C33.7465 11.6761 33.7486 11.5919 33.7669 11.5107M28.5805 11.6209L27.1263 15.9005H28.3106C28.6053 15.9058 28.8982 15.8508 29.172 15.7387C29.4458 15.6266 29.6951 15.4596 29.9053 15.2476C30.3535 14.821 30.6591 14.2601 30.7785 13.6448C30.8494 13.3974 30.8657 13.1368 30.8261 12.882C30.7866 12.6273 30.6922 12.3848 30.5498 12.1721C30.3849 11.9746 30.1764 11.8203 29.9417 11.722C29.707 11.6236 29.4528 11.5842 29.2002 11.6068L28.5805 11.6209ZM27.6909 10.5525H29.6685C30.6655 10.5525 31.3651 10.8351 31.77 11.4231C32.1749 12.011 32.274 12.7601 32.0812 13.6844C31.8989 14.5931 31.4398 15.4187 30.7702 16.0419C30.1825 16.6367 29.3922 16.9733 28.5668 16.9803H25.4985L27.6909 10.5525Z" fill="var(--fill-0, #171717)"/>
<path id="Vector_6" fill-rule="evenodd" clip-rule="evenodd" d="M25.9944 21.3532H26.6747C26.898 21.3607 27.1169 21.2888 27.2944 21.1497C27.3677 21.084 27.4254 21.002 27.4632 20.9099C27.5009 20.8178 27.5176 20.718 27.512 20.6183C27.5174 20.5173 27.5007 20.4164 27.463 20.323C27.4254 20.2295 27.3677 20.146 27.2944 20.0784C27.1181 19.9377 26.8976 19.8683 26.6747 19.8834H25.9944V21.3532ZM25.9944 21.7405V23.3743H25.5923V19.4876H26.5866C26.9382 19.4687 27.2863 19.5679 27.5781 19.7703C27.6998 19.8722 27.7963 20.0021 27.86 20.1494C27.9236 20.2967 27.9526 20.4574 27.9444 20.6183C27.9506 20.7757 27.9206 20.9324 27.857 21.0758C27.7934 21.2191 27.6979 21.3451 27.5781 21.4437C27.2901 21.6558 26.9406 21.7614 26.5866 21.7433L25.9944 21.7405Z" fill="var(--fill-0, #171717)"/>
<path id="Vector_7" fill-rule="evenodd" clip-rule="evenodd" d="M29.564 22.9984C29.6873 23.0014 29.8098 22.9778 29.9237 22.9291C30.0376 22.8804 30.1402 22.8077 30.225 22.7157C30.3147 22.6206 30.3852 22.5081 30.4324 22.3849C30.4797 22.2617 30.5028 22.1302 30.5004 21.9978C30.5041 21.8656 30.4816 21.7341 30.4343 21.6112C30.3869 21.4882 30.3157 21.3764 30.225 21.2826C30.1427 21.186 30.041 21.1087 29.9269 21.056C29.8129 21.0033 29.6891 20.9765 29.564 20.9773C29.4374 20.9745 29.3117 21.0004 29.196 21.0531C29.0803 21.1059 28.9774 21.1843 28.8947 21.2826C28.8043 21.3767 28.7334 21.4886 28.686 21.6114C28.6387 21.7343 28.616 21.8657 28.6192 21.9978C28.6151 22.265 28.7141 22.5231 28.8947 22.7157C28.9799 22.8094 29.0838 22.8831 29.1993 22.9319C29.3148 22.9806 29.4392 23.0033 29.564 22.9984ZM29.564 23.3828C29.3867 23.3904 29.2098 23.3592 29.0451 23.2915C28.8803 23.2238 28.7314 23.121 28.6082 22.9899C28.3651 22.7136 28.2306 22.3545 28.2306 21.9822C28.2306 21.6099 28.3651 21.2509 28.6082 20.9745C28.8631 20.7181 29.2057 20.5745 29.5626 20.5745C29.9195 20.5745 30.2621 20.7181 30.517 20.9745C30.7572 21.2523 30.8899 21.6108 30.8899 21.9822C30.8899 22.3536 30.7572 22.7122 30.517 22.9899C30.3945 23.1204 30.2465 23.2229 30.0827 23.2906C29.919 23.3583 29.7431 23.3897 29.5667 23.3828" fill="var(--fill-0, #171717)"/>
<path id="Vector_8" fill-rule="evenodd" clip-rule="evenodd" d="M32.4751 22.679L33.2187 20.5251H33.4639L34.2213 22.6762L35.0145 20.5647H35.3836L34.3205 23.3772H34.0781L33.3344 21.2685L32.5825 23.3772H32.3429L31.2797 20.5647H31.6873L32.4751 22.679Z" fill="var(--fill-0, #171717)"/>
<path id="Vector_9" fill-rule="evenodd" clip-rule="evenodd" d="M37.6311 21.6416C37.6069 21.4936 37.5462 21.3544 37.4548 21.2374C37.3845 21.1495 37.2949 21.08 37.1935 21.0343C37.092 20.9886 36.9815 20.9681 36.8709 20.9745C36.7647 20.9783 36.6606 21.0055 36.5655 21.0543C36.4705 21.1031 36.3868 21.1722 36.3201 21.2571C36.2356 21.3741 36.1713 21.5051 36.13 21.6444L37.6311 21.6416ZM36.0749 21.9751C36.0741 22.1068 36.0993 22.2374 36.1491 22.3588C36.1988 22.4803 36.2719 22.5901 36.3641 22.6818C36.4535 22.7788 36.5617 22.8556 36.6817 22.9072C36.8017 22.9588 36.9309 22.9841 37.061 22.9814C37.2207 22.9819 37.3793 22.9532 37.5292 22.8966C37.6883 22.8313 37.8369 22.7417 37.9699 22.6309L38.058 22.5546V22.9899H38.0305C37.8936 23.1113 37.737 23.207 37.5678 23.2726C37.3156 23.3645 37.044 23.3852 36.7814 23.3325C36.5187 23.2798 36.2748 23.1556 36.0749 22.9729C35.9476 22.8415 35.8479 22.6846 35.782 22.512C35.7162 22.3394 35.6856 22.1547 35.6921 21.9695C35.6775 21.6019 35.7951 21.2417 36.0226 20.9575C36.1261 20.8299 36.2565 20.728 36.4039 20.6594C36.5513 20.5909 36.7119 20.5575 36.8737 20.5618C37.0378 20.5523 37.2018 20.5807 37.3539 20.6448C37.5059 20.7088 37.642 20.807 37.7523 20.9321C37.9587 21.2057 38.0658 21.5445 38.0553 21.8903V21.9468L36.0749 21.9751Z" fill="var(--fill-0, #171717)"/>
<path id="Vector_10" fill-rule="evenodd" clip-rule="evenodd" d="M39.284 20.9745C39.3361 20.875 39.407 20.7873 39.4926 20.7163C39.5782 20.6454 39.6768 20.5927 39.7825 20.5614C39.8882 20.53 39.9989 20.5207 40.1082 20.5339C40.2174 20.547 40.323 20.5825 40.4188 20.6381C40.4244 20.6384 40.4298 20.6405 40.4342 20.644C40.4386 20.6475 40.4419 20.6524 40.4436 20.6579V21.0988C40.4188 21.0847 40.4436 21.0988 40.4105 21.0988C39.788 20.7427 39.408 21.2543 39.284 21.602V23.3715H38.9012V20.5448H39.284V20.9745Z" fill="var(--fill-0, #171717)"/>
<path id="Vector_11" fill-rule="evenodd" clip-rule="evenodd" d="M43.2416 19.8947H42.027V19.5385H44.8639V19.8947H43.6492V23.3348H43.2416V19.8947Z" fill="var(--fill-0, #171717)"/>
<path id="Vector_12" fill-rule="evenodd" clip-rule="evenodd" d="M49.8548 19.954V21.195H51.3917V21.5624H49.8548V22.9503H51.6781V23.3206H49.4499V19.5837H51.6065V19.954H49.8548Z" fill="var(--fill-0, #171717)"/>
<path id="Vector_13" fill-rule="evenodd" clip-rule="evenodd" d="M52.7798 20.9208C52.8715 20.8036 52.9877 20.709 53.1197 20.644C53.2517 20.5789 53.3963 20.5451 53.5427 20.5448C53.6764 20.5397 53.8096 20.5638 53.9335 20.6154C54.0574 20.6671 54.1693 20.7451 54.2616 20.8445C54.3221 20.9115 54.3747 20.9855 54.4186 21.065L54.4737 20.9717C54.5679 20.8409 54.6902 20.7341 54.8311 20.6596C54.972 20.5851 55.1277 20.5448 55.2862 20.542C55.4199 20.5365 55.5532 20.5604 55.6772 20.6121C55.8012 20.6638 55.9129 20.742 56.0051 20.8416C56.0987 20.9438 56.1713 21.0643 56.2186 21.1959C56.2659 21.3275 56.287 21.4676 56.2805 21.6077V23.2811H55.8811V21.6246C55.89 21.4392 55.8277 21.2575 55.7076 21.1187C55.6503 21.0528 55.579 21.0012 55.4993 20.9679C55.4196 20.9346 55.3335 20.9204 55.2476 20.9264C55.1344 20.932 55.0238 20.9633 54.9237 21.018C54.8237 21.0728 54.7368 21.1496 54.6692 21.243C54.6181 21.2955 54.5737 21.3544 54.537 21.4183V23.2811H54.1376V21.6246C54.1426 21.5327 54.1299 21.4407 54.1001 21.3539C54.0703 21.267 54.0241 21.1871 53.9641 21.1187C53.9062 21.0536 53.8348 21.0026 53.7553 20.9693C53.6757 20.9361 53.5899 20.9214 53.5042 20.9264C53.3902 20.9323 53.2789 20.9637 53.178 21.0184C53.0772 21.0731 52.9892 21.1498 52.9202 21.243C52.8716 21.2984 52.8266 21.357 52.7853 21.4183V23.2811H52.3942V20.5957H52.7798V20.9208Z" fill="var(--fill-0, #171717)"/>
<path id="Vector_14" d="M57.1344 20.6014H57.5338V20.9406C57.6174 20.7964 57.7497 20.6887 57.9056 20.6381C58.1418 20.541 58.4003 20.5159 58.6501 20.5661C58.8998 20.6162 59.13 20.7394 59.3131 20.9208C59.5439 21.2069 59.6713 21.5659 59.6739 21.9373C59.6764 22.3087 59.5538 22.6696 59.3269 22.9589C58.8476 23.4959 58.1453 23.3744 57.5724 23.0634L57.5338 23.038V24.3468H57.1344V20.6014ZM58.7429 21.0904C58.4124 20.8699 57.9304 20.9208 57.5421 21.4551V22.549C57.947 22.9956 58.4703 23.038 58.8173 22.7779C58.939 22.6718 59.0353 22.5386 59.0991 22.3883C59.1628 22.2381 59.1922 22.0749 59.185 21.9112C59.1778 21.7476 59.1343 21.5877 59.0577 21.444C58.981 21.3003 58.8734 21.1764 58.7429 21.0819" fill="var(--fill-0, #171717)"/>
<path id="Vector_15" d="M32.2328 17.6079H24.6861V18.0545H32.2328V17.6079Z" fill="var(--fill-0, #171717)"/>
<path id="Vector_16" d="M72.6437 17.6079H38.3087V18.0545H72.6437V17.6079Z" fill="var(--fill-0, #171717)"/>
<path id="Vector_17" fill-rule="evenodd" clip-rule="evenodd" d="M45.9493 22.925C46.0728 22.9292 46.1957 22.9062 46.3097 22.8574C46.4238 22.8086 46.5263 22.7353 46.6103 22.6423C46.79 22.4502 46.8889 22.1934 46.8857 21.9271C46.8877 21.6594 46.7891 21.4013 46.6103 21.2063C46.5278 21.1113 46.4256 21.0366 46.3112 20.9877C46.1967 20.9388 46.0731 20.9169 45.9493 20.9237C45.8249 20.9188 45.701 20.9415 45.5859 20.9903C45.4709 21.0391 45.3675 21.1128 45.2827 21.2063C45.1017 21.3998 45.0027 21.6589 45.0073 21.9271C45.0045 22.0591 45.0275 22.1904 45.0748 22.3132C45.1221 22.436 45.1928 22.5479 45.2827 22.6423C45.3686 22.7344 45.4722 22.8071 45.5869 22.8558C45.7017 22.9045 45.8251 22.928 45.9493 22.925ZM45.9493 23.3122C45.7721 23.3181 45.5957 23.2863 45.4312 23.2187C45.2667 23.151 45.1177 23.0491 44.9935 22.9193C44.8685 22.7864 44.7707 22.6291 44.7059 22.4568C44.641 22.2844 44.6106 22.1005 44.6162 21.9158C44.6079 21.7292 44.6372 21.5428 44.7021 21.3682C44.767 21.1936 44.8662 21.0346 44.9935 20.901C45.1168 20.7697 45.2656 20.6663 45.4302 20.5977C45.5948 20.529 45.7717 20.4966 45.9493 20.5025C46.1262 20.4958 46.3024 20.5278 46.4663 20.5966C46.6301 20.6653 46.7778 20.7691 46.8995 20.901C47.0259 21.0332 47.125 21.1902 47.1908 21.3626C47.2566 21.5351 47.2877 21.7194 47.2823 21.9045C47.2866 22.0895 47.255 22.2735 47.1893 22.4458C47.1235 22.6181 47.025 22.7752 46.8995 22.908C46.776 23.0371 46.6278 23.1386 46.4643 23.2062C46.3008 23.2738 46.1255 23.306 45.9493 23.3009" fill="var(--fill-0, #171717)"/>
<path id="Vector_18" fill-rule="evenodd" clip-rule="evenodd" d="M61.4971 22.9249C61.6204 22.9277 61.7429 22.904 61.8567 22.8553C61.9706 22.8066 62.0732 22.7341 62.1581 22.6422C62.3383 22.4505 62.4373 22.1934 62.4335 21.9271C62.4361 21.6593 62.3374 21.4009 62.1581 21.2063C62.0731 21.1134 61.9705 21.0394 61.8566 20.9889C61.7426 20.9383 61.6198 20.9122 61.4957 20.9122C61.3716 20.9122 61.2488 20.9383 61.1348 20.9889C61.0209 21.0394 60.9183 21.1134 60.8333 21.2063C60.7429 21.3015 60.672 21.4144 60.6247 21.5381C60.5774 21.6619 60.5547 21.7942 60.5579 21.9271C60.5541 22.0592 60.5766 22.1907 60.624 22.3137C60.6713 22.4366 60.7425 22.5484 60.8333 22.6422C60.9182 22.7341 61.0208 22.8066 61.1347 22.8553C61.2485 22.904 61.371 22.9277 61.4943 22.9249M61.4943 23.3121C61.317 23.3193 61.1403 23.288 60.9756 23.2203C60.8109 23.1526 60.662 23.05 60.5386 22.9192C60.4129 22.7868 60.3146 22.6296 60.2498 22.4572C60.1849 22.2847 60.1548 22.1005 60.1612 21.9158C60.1529 21.7286 60.1826 21.5417 60.2485 21.367C60.3144 21.1923 60.4151 21.0336 60.5441 20.901C60.6667 20.7688 60.8154 20.6648 60.9801 20.5961C61.1449 20.5274 61.3221 20.4954 61.4998 20.5024C61.6774 20.4967 61.8542 20.5292 62.0188 20.5979C62.1834 20.6665 62.3322 20.7698 62.4556 20.901C62.579 21.0348 62.6754 21.1924 62.7392 21.3646C62.803 21.5368 62.833 21.7203 62.8274 21.9045C62.8369 22.2761 62.7033 22.6367 62.4556 22.9079C62.3313 23.0376 62.1823 23.1394 62.0178 23.207C61.8533 23.2747 61.6769 23.3066 61.4998 23.3008" fill="var(--fill-0, #171717)"/>
<path id="Vector_19" fill-rule="evenodd" clip-rule="evenodd" d="M64.4113 22.7129L65.1577 20.5477H65.4084L66.1548 22.7073L66.948 20.5929H67.3281L66.265 23.3998H66.0226L65.2734 21.2968L64.527 23.3998H64.2819L63.2187 20.5929H63.6208L64.4113 22.7129Z" fill="var(--fill-0, #171717)"/>
<path id="Vector_20" fill-rule="evenodd" clip-rule="evenodd" d="M69.5809 21.6416C69.5581 21.4932 69.4973 21.3538 69.4047 21.2374C69.3349 21.1497 69.2458 21.0801 69.1448 21.0344C69.0438 20.9887 68.9337 20.9682 68.8235 20.9745C68.7169 20.9762 68.6121 21.0025 68.5167 21.0514C68.4213 21.1004 68.3379 21.1707 68.2727 21.2572C68.1848 21.372 68.1202 21.5037 68.0826 21.6445L69.5809 21.6416ZM68.0275 21.9752C68.0264 22.107 68.0515 22.2376 68.1012 22.3591C68.1509 22.4806 68.2243 22.5904 68.3167 22.6818C68.4055 22.7782 68.5128 22.8545 68.6318 22.9061C68.7508 22.9577 68.8789 22.9833 69.0081 22.9815C69.1677 22.9813 69.3262 22.9526 69.4763 22.8967C69.6352 22.8345 69.7824 22.7446 69.9115 22.631L70.0079 22.5546V22.99H69.9886C69.8485 23.1112 69.6892 23.2068 69.5176 23.2726C69.2646 23.3651 68.992 23.386 68.7285 23.3333C68.4649 23.2806 68.2199 23.1562 68.0193 22.973C67.8933 22.8406 67.7947 22.6835 67.7294 22.5111C67.6641 22.3386 67.6334 22.1544 67.6392 21.9695C67.6271 21.6028 67.7433 21.2438 67.9669 20.9576C68.0764 20.835 68.2092 20.7366 68.3571 20.6687C68.505 20.6007 68.665 20.5646 68.827 20.5625C68.9891 20.5603 69.1498 20.5923 69.2994 20.6564C69.4489 20.7204 69.5841 20.8152 69.6966 20.935C69.9052 21.2077 70.0143 21.5467 70.0051 21.8932V21.9497L68.0275 21.9752Z" fill="var(--fill-0, #171717)"/>
<path id="Vector_21" fill-rule="evenodd" clip-rule="evenodd" d="M71.2338 20.9462C71.2866 20.8486 71.3577 20.7626 71.443 20.6933C71.5283 20.624 71.626 20.5726 71.7307 20.5421C71.8354 20.5116 71.9449 20.5027 72.0529 20.5158C72.161 20.5288 72.2654 20.5637 72.3603 20.6183C72.3603 20.6183 72.3796 20.6183 72.3906 20.6324V21.0904C72.3576 21.0536 72.3906 21.0904 72.3576 21.0706C71.7323 20.7116 71.355 21.2289 71.2311 21.5681V23.3376H70.8482V20.5222H71.2338V20.9462Z" fill="var(--fill-0, #171717)"/>
</g>
</svg>
