<svg preserveAspectRatio="none" width="100%" height="100%" overflow="visible" style="display: block;" viewBox="0 0 62.0007 14" fill="none" xmlns="http://www.w3.org/2000/svg">
<g id="#2384c5ff">
<path id="path2" d="M49.384 0.491071C49.4458 0.0515848 50.17 -0.145922 50.5689 0.120909C50.6154 0.220752 50.5927 0.33106 50.6038 0.435263C50.4403 0.394715 50.2737 0.363759 50.1023 0.367683C49.9817 0.443983 49.8479 0.542955 49.8833 0.683346C49.9658 0.888265 50.1933 1.01645 50.3573 1.17472C50.4551 1.1782 50.5541 1.18038 50.6535 1.183C50.6509 1.32906 50.6556 1.47512 50.6398 1.62074C50.5366 1.61725 50.4345 1.61595 50.3329 1.61595C50.3345 1.81999 50.3372 2.02448 50.3298 2.22852C49.9251 2.2198 49.5199 2.22547 49.1152 2.22678C49.2316 2.39159 49.3776 2.66975 49.6685 2.5843C49.8987 2.51672 50.1489 2.47661 50.3911 2.52544C50.5652 2.58866 50.5895 2.76219 50.6027 2.89996C50.5879 3.07741 50.5329 3.26358 50.3821 3.397C50.2621 3.5121 50.0944 3.57837 49.9373 3.65119C50.1288 3.78242 50.3684 3.85305 50.562 3.98211C50.4329 4.09154 50.3091 4.2049 50.1959 4.32524C49.8648 4.16087 49.5405 3.98037 49.2591 3.76062C49.0364 3.73664 48.7719 3.76062 48.5995 3.61543C48.4641 3.53259 48.473 3.38174 48.4889 3.25835C48.5587 3.12276 48.7275 3.06477 48.8946 3.04776C49.1607 3.07 49.3358 3.23786 49.5146 3.37825C49.796 3.39264 50.0663 3.02858 49.8362 2.8459C49.6712 2.85985 49.5289 2.95664 49.3586 2.94356C48.9608 2.92874 48.6725 2.64839 48.508 2.37502C48.3958 2.20847 48.4455 1.96692 48.6762 1.89019C48.9359 1.86229 49.2004 1.88321 49.4622 1.87973C49.5474 1.87275 49.6474 1.90022 49.7236 1.85575C49.7289 1.77378 49.7236 1.69181 49.7199 1.61028C49.1337 1.62336 48.5466 1.60548 47.9605 1.61856C47.9446 2.3288 47.9557 3.04035 47.9552 3.75103C47.7341 3.7519 47.5135 3.75103 47.2929 3.75321C47.2918 3.04079 47.2929 2.32837 47.2924 1.61595C47.0956 1.61333 46.8988 1.61333 46.7025 1.62031C46.7189 2.33055 46.7068 3.04166 46.7062 3.75234C46.4968 3.75234 46.2868 3.75234 46.0778 3.75059C46.0762 3.42926 46.0709 3.10793 46.0799 2.78704C45.9815 2.80143 45.8816 2.80927 45.7826 2.80884C45.8133 3.05736 45.753 3.34599 45.4721 3.48594C45.0955 3.66252 44.5707 3.65424 44.2359 3.41313C43.909 3.18336 43.6207 2.88819 43.5085 2.54288C43.6619 2.48533 43.8217 2.43911 43.9719 2.37546C44.1322 2.57732 44.2105 2.8241 44.4279 2.9937C44.5729 3.09398 44.7606 3.18336 44.9569 3.15894C45.2087 3.09093 45.2753 2.78224 45.0701 2.64534C44.9283 2.525 44.7146 2.55334 44.5321 2.55334C44.4734 2.46048 44.4216 2.36456 44.3687 2.26994C44.567 2.18449 44.812 2.15615 44.9416 1.98829C44.9505 1.87144 44.9352 1.75023 44.8146 1.67393C44.5517 1.64865 44.3427 1.79035 44.1835 1.94382C44.0867 1.7995 44.0206 1.64341 43.928 1.49779C44.2814 1.22355 44.8696 1.15074 45.2838 1.37353C45.6292 1.56057 45.6827 2.0284 45.3626 2.25076C45.4901 2.30918 45.6097 2.38679 45.753 2.41862C45.8593 2.40554 45.9874 2.39813 46.063 2.32662C46.0942 2.09336 46.0609 1.85705 46.0836 1.62292C45.9561 1.61856 45.8297 1.61551 45.7033 1.60679C45.7049 1.46247 45.7049 1.31772 45.7096 1.17341C47.0818 1.18518 48.4551 1.183 49.8267 1.17428C49.6204 0.981133 49.3125 0.781882 49.384 0.491071Z" fill="var(--fill-0, #2384C5)"/>
<path id="path4" d="M53.1125 0.11874C53.5214 -0.0351673 54.0144 0.00232843 54.3995 0.186756C54.8242 0.385135 55.1036 0.745705 55.2723 1.11325C55.2892 1.99179 55.2681 2.87163 55.2829 3.75061C55.0602 3.75322 54.838 3.75322 54.6158 3.74973C54.6243 3.03862 54.6185 2.32707 54.6185 1.61596C54.4254 1.61421 54.2323 1.61509 54.0403 1.61509C54.0334 2.32707 54.0345 3.03906 54.0398 3.75104C53.8266 3.75279 53.6139 3.75279 53.4018 3.74973C53.4008 3.41009 53.406 3.07001 53.3997 2.72993C53.4166 2.61003 53.2384 2.67456 53.1601 2.67587C53.031 2.54333 52.9326 2.39334 52.8448 2.24074C53.0305 2.2499 53.2167 2.25295 53.4029 2.2438C53.4034 2.03408 53.4029 1.8248 53.3997 1.61552C53.1728 1.61814 52.9453 1.60419 52.72 1.61988C52.6655 1.91505 52.8231 2.25644 52.5808 2.51237C52.492 2.62181 52.3306 2.66279 52.1889 2.70595C52.4449 2.95622 52.6983 3.20866 52.9469 3.46415C52.7771 3.57054 52.6057 3.67474 52.437 3.782C52.0259 3.27319 51.5689 2.78967 51.1801 2.26821C51.3314 2.17273 51.4895 2.08422 51.6461 1.99353C51.7122 2.11212 51.8011 2.22418 51.9402 2.2935C51.9773 2.26647 52.0148 2.23944 52.0534 2.2124C52.0513 2.01184 52.0571 1.81172 52.0471 1.61116C51.8455 1.61552 51.6451 1.61596 51.4446 1.61552C51.4451 1.46946 51.4456 1.32384 51.4456 1.17822C51.9228 1.17865 52.4004 1.18694 52.8776 1.17386C52.6951 0.989428 52.6459 0.743526 52.703 0.51419C52.767 0.343715 52.922 0.20158 53.1125 0.11874ZM53.3997 0.480183C53.1468 0.600518 53.1537 0.934057 53.3854 1.06791C53.6282 1.2144 53.9408 1.17604 54.2228 1.18127C54.3667 1.17734 54.527 1.20961 54.6507 1.13026C54.5365 0.927517 54.3931 0.723906 54.1604 0.59921C53.9435 0.478874 53.6541 0.370311 53.3997 0.480183Z" fill="var(--fill-0, #2384C5)"/>
<path id="path6" d="M27.393 2.19404C28.7572 1.41535 30.4018 0.981968 32.0591 0.94578C33.106 0.927032 34.1544 0.947088 35.2018 0.93488C35.2087 2.24331 35.2034 3.55218 35.2045 4.86061C31.6836 4.86715 28.1626 4.86322 24.6417 4.86148C25.2326 3.785 26.2149 2.86243 27.393 2.19404Z" fill="var(--fill-0, #2384C5)"/>
<path id="path8" d="M0.000194806 1.15734C0.847096 1.16693 1.69611 1.13467 2.54143 1.18132C3.82897 1.17216 5.11757 1.19265 6.40512 1.17085C6.75266 1.59857 7.0473 2.05331 7.37527 2.49106C7.94446 3.28283 8.52052 4.07111 9.08494 4.8655C6.05758 4.86245 3.03021 4.86245 0.00283988 4.86507C-0.00297893 3.62901 0.00231074 2.39339 0.000194806 1.15734Z" fill="var(--fill-0, #2384C5)"/>
<path id="path10" d="M10.7331 1.16164C12.4804 1.15161 14.2281 1.15989 15.9759 1.15728C15.9711 2.39464 15.9854 3.63244 15.9685 4.86936C14.2281 4.8589 12.4872 4.86021 10.7469 4.86849C10.7252 3.63287 10.7511 2.39725 10.7331 1.16164Z" fill="var(--fill-0, #2384C5)"/>
<path id="path12" d="M17.4566 1.15729C19.2831 1.15729 21.1097 1.15685 22.9363 1.15772C22.9247 2.3916 22.9352 3.62591 22.931 4.85979C21.1071 4.86938 19.2831 4.85848 17.4592 4.86502C17.4534 3.62896 17.4587 2.39334 17.4566 1.15729Z" fill="var(--fill-0, #2384C5)"/>
<path id="path14" d="M38.0603 1.18131C39.7715 1.17783 41.4828 1.18219 43.194 1.17913C43.1919 1.32432 43.1898 1.46951 43.1914 1.6147C43.0671 1.6147 42.9433 1.61513 42.8201 1.61862C42.8238 2.33104 42.8238 3.04303 42.8201 3.75545C42.609 3.75022 42.3979 3.75196 42.1874 3.75065C42.1869 3.34343 42.1906 2.93664 42.1847 2.52942C41.9382 2.53291 41.6917 2.53204 41.4458 2.52942C41.4526 2.68464 41.4574 2.84683 41.3595 2.98591C41.2685 2.98373 41.1596 3.01861 41.0871 2.95713C40.8718 2.79974 40.6676 2.62621 40.5195 2.42173C40.4608 2.34935 40.4539 2.25779 40.4777 2.17452C40.5502 2.07206 40.7105 2.07337 40.8364 2.07075C41.2871 2.07249 41.7378 2.07424 42.1884 2.06944C42.189 1.91815 42.1879 1.76686 42.1863 1.61557C41.4812 1.61426 40.7766 1.61382 40.072 1.61644C40.0672 1.91597 40.0804 2.21594 40.0667 2.51503C40.0323 2.73783 39.744 2.82154 39.515 2.86557C39.3388 2.74088 39.1553 2.62316 38.9876 2.49062C39.132 2.49105 39.2822 2.49062 39.4134 2.43176C39.4108 2.161 39.4002 1.89025 39.4176 1.61993C39.1859 1.61208 38.9537 1.6147 38.722 1.61818C38.7226 1.98529 38.7236 2.3524 38.721 2.71952C39.1198 3.02123 39.5546 3.28893 39.9598 3.58497C40.0693 3.66432 40.1429 3.78073 40.1307 3.90325C40.1429 4.10948 39.8943 4.23766 39.6858 4.29478C39.597 4.2926 39.4732 4.31963 39.4187 4.24507C39.3415 4.16398 39.2769 4.07547 39.2103 3.98827C39.3452 4.01312 39.4779 3.97824 39.5377 3.87055C39.0521 3.52568 38.549 3.19737 38.0576 2.85773C38.0661 2.29878 38.0608 1.73983 38.0603 1.18131Z" fill="var(--fill-0, #2384C5)"/>
<path id="path16" d="M38.0074 4.66617C38.2603 4.66966 38.5126 4.66486 38.7654 4.66922C39.1802 5.29096 39.6108 5.90571 40.053 6.51437C40.0318 5.89961 40.053 5.28442 40.0387 4.66966C40.2683 4.66922 40.4984 4.66879 40.7285 4.66356C40.7311 5.5822 40.7396 6.50129 40.7243 7.41994C40.4878 7.41252 40.2514 7.41034 40.0154 7.41863C39.5478 6.79254 39.1378 6.13679 38.6554 5.51855C38.6909 6.14944 38.6512 6.78164 38.6718 7.41296C38.4496 7.41601 38.2269 7.4147 38.0048 7.41209C38.0132 6.49693 38.0074 5.58133 38.0074 4.66617Z" fill="var(--fill-0, #2384C5)"/>
<path id="path18" d="M45.3607 4.66921C45.5908 4.66703 45.8209 4.66703 46.051 4.66746C46.0505 4.83445 46.0515 5.00187 46.0431 5.16886C45.8167 5.16799 45.5908 5.16843 45.3649 5.16799C45.3612 5.00188 45.3607 4.83576 45.3607 4.66921Z" fill="var(--fill-0, #2384C5)"/>
<path id="path20" d="M54.6183 4.66618C54.8468 4.66836 55.0753 4.66793 55.3044 4.66662C55.3092 5.58265 55.3028 6.49869 55.3081 7.41472C55.0769 7.41472 54.8458 7.41559 54.6151 7.41167C54.6262 6.4965 54.6178 5.58134 54.6183 4.66618Z" fill="var(--fill-0, #2384C5)"/>
<path id="path22" d="M43.878 4.84361C44.0976 4.84404 44.3171 4.84317 44.5371 4.83794C44.5419 5.02803 44.5403 5.21769 44.5403 5.40779C44.671 5.40866 44.8022 5.40648 44.9339 5.40517C44.9386 5.53815 44.9392 5.67113 44.9349 5.80411C44.8027 5.80193 44.671 5.79975 44.5393 5.80237C44.5467 6.18735 44.5292 6.57277 44.5477 6.95732C44.6218 7.06414 44.8122 7.01139 44.9365 7.02316C44.9344 7.1605 44.9376 7.29784 44.9376 7.43518C44.6509 7.42123 44.3472 7.47834 44.0769 7.37806C43.9442 7.32792 43.8823 7.198 43.877 7.08464C43.8791 6.65649 43.8828 6.22834 43.8764 5.80019C43.7638 5.79975 43.6522 5.79975 43.5405 5.79931C43.5289 5.66895 43.53 5.53859 43.5421 5.40866C43.6543 5.40866 43.7675 5.4091 43.8807 5.40779C43.8812 5.21987 43.8801 5.03152 43.878 4.84361Z" fill="var(--fill-0, #2384C5)"/>
<path id="path24" d="M47.4232 5.32457C47.7914 5.29448 48.1966 5.33329 48.4891 5.53646C49.0091 5.94456 49.0557 6.67834 48.6283 7.1453C48.3823 7.41343 47.9485 7.50499 47.5581 7.48014C47.2132 7.48581 46.8504 7.37376 46.6467 7.13658C46.2801 6.72717 46.2722 6.12506 46.6202 5.70519C46.799 5.48283 47.1069 5.35465 47.4232 5.32457ZM47.2968 5.87392C47.108 6.00429 47.0836 6.21924 47.0503 6.40628C47.0852 6.55713 47.0889 6.72238 47.2074 6.85013C47.3862 7.06333 47.7972 7.08251 48.0157 6.89983C48.1728 6.76511 48.2067 6.56934 48.2188 6.39015C48.2014 6.17869 48.14 5.91186 47.8681 5.8264C47.6846 5.74749 47.4624 5.78237 47.2968 5.87392Z" fill="var(--fill-0, #2384C5)"/>
<path id="path26" d="M41.7787 5.37995C42.1585 5.31062 42.5722 5.32021 42.9356 5.44404C43.1583 5.51903 43.2985 5.7161 43.2969 5.91186C43.3022 6.31821 43.2948 6.725 43.298 7.13179C43.2964 7.23861 43.4085 7.31316 43.4609 7.40385C43.2043 7.41301 42.942 7.43393 42.6886 7.39687C42.6547 7.33365 42.6685 7.26389 42.6627 7.19719C42.4521 7.35458 42.1919 7.49672 41.8946 7.48189C41.5544 7.50239 41.181 7.33627 41.1096 7.0459C41.0974 6.8667 41.0699 6.66745 41.2011 6.51136C41.3508 6.30383 41.656 6.24453 41.9231 6.20224C42.1411 6.16649 42.3886 6.1909 42.5796 6.08103C42.7018 5.99514 42.6076 5.84123 42.4728 5.81115C42.3098 5.76798 42.1173 5.75316 41.9681 5.83295C41.8708 5.88265 41.8501 5.98206 41.8084 6.06228C41.5962 6.06054 41.3846 6.0649 41.173 6.05836C41.1651 5.75185 41.4063 5.44971 41.7787 5.37995ZM41.912 6.61993C41.8115 6.65655 41.7877 6.75378 41.7443 6.8279C41.766 6.88327 41.7867 6.93908 41.8073 6.99532C42.0035 7.10999 42.2971 7.08514 42.4722 6.95085C42.6447 6.83138 42.6277 6.62254 42.6415 6.45425C42.4098 6.54275 42.1432 6.53229 41.912 6.61993Z" fill="var(--fill-0, #2384C5)"/>
<path id="path28" d="M49.9638 5.61185C50.105 5.49588 50.2569 5.37423 50.4637 5.34894C50.7107 5.33325 50.9789 5.32235 51.1979 5.43571C51.4312 5.52988 51.5471 5.74745 51.5518 5.95324C51.5518 6.43981 51.5455 6.92639 51.5529 7.41296C51.3228 7.41558 51.0927 7.4147 50.8631 7.41252C50.8599 6.96127 50.871 6.51001 50.8583 6.05919C50.8461 5.76881 50.3431 5.71954 50.14 5.9031C49.9781 6.02779 49.9823 6.2205 49.9649 6.38836C49.9612 6.73019 49.9622 7.07157 49.9654 7.4134C49.7443 7.41427 49.5237 7.4134 49.3031 7.41558C49.3036 6.7376 49.2999 6.06006 49.3052 5.38252C49.5253 5.38688 49.7453 5.38557 49.9654 5.38993C49.9638 5.46361 49.9622 5.53773 49.9638 5.61185Z" fill="var(--fill-0, #2384C5)"/>
<path id="path30" d="M52.4958 5.40958C52.864 5.30669 53.2798 5.31584 53.6495 5.4122C53.8944 5.4667 54.1081 5.64415 54.1124 5.86128C54.1208 6.27068 54.1108 6.68008 54.1156 7.08948C54.1103 7.20895 54.2166 7.30094 54.2758 7.40253C54.0341 7.42477 53.7908 7.41081 53.549 7.41605C53.5331 7.39904 53.5025 7.36503 53.4866 7.34803C53.4866 7.30923 53.4866 7.23162 53.4866 7.19282C53.2644 7.37855 52.956 7.51022 52.6328 7.48057C52.3043 7.47839 51.9568 7.28002 51.925 6.99705C51.907 6.82832 51.9097 6.64564 52.0314 6.50089C52.1435 6.33739 52.3763 6.27591 52.5831 6.2297C52.8354 6.17214 53.1094 6.19482 53.3538 6.11198C53.4824 6.05617 53.4781 5.90313 53.3644 5.83817C53.1824 5.75141 52.9407 5.75271 52.7624 5.84471C52.6936 5.90575 52.6624 5.98815 52.6175 6.06096C52.4064 6.05966 52.1953 6.06227 51.9853 6.06053C51.9986 5.78803 52.17 5.50637 52.4958 5.40958ZM52.7481 6.61337C52.5635 6.67572 52.5281 6.90506 52.6688 7.01362C52.8793 7.12218 53.1681 7.06289 53.3395 6.92598C53.4586 6.79344 53.4623 6.62122 53.4591 6.46339C53.2269 6.52966 52.974 6.53315 52.7481 6.61337Z" fill="var(--fill-0, #2384C5)"/>
<path id="path32" d="M0.00530263 5.35852C1.55469 5.37465 3.10461 5.3607 4.654 5.3655C6.25946 5.36201 7.86545 5.37204 9.47145 5.36026C9.82639 5.81937 10.1639 6.28763 10.5098 6.7511C10.6204 6.89759 10.7167 7.05237 10.8569 7.18186C10.8209 6.5767 10.7643 5.97284 10.732 5.36768C12.4787 5.35939 14.2259 5.37291 15.9726 5.36114C15.98 6.00075 15.9737 6.64079 15.9758 7.2804C10.6505 7.28345 5.32528 7.2852 1.28886e-05 7.27953C0.00477373 6.63905 -0.005806 5.999 0.00530263 5.35852Z" fill="var(--fill-0, #2384C5)"/>
<path id="path34" d="M17.4617 5.35898C19.2845 5.3738 21.1079 5.36247 22.9308 5.36421C22.9303 6.00513 22.9372 6.64605 22.9276 7.28653C21.1037 7.27519 19.2798 7.28958 17.4564 7.27955C17.4611 6.63907 17.4511 5.99903 17.4617 5.35898Z" fill="var(--fill-0, #2384C5)"/>
<path id="path36" d="M24.2803 5.60403C24.3252 5.51552 24.3178 5.34199 24.486 5.36685C26.5078 5.36685 28.5296 5.35987 30.5508 5.3699C30.0959 5.71739 29.7039 6.14249 29.559 6.64824C29.4738 6.8536 29.469 7.07116 29.4294 7.28349C27.589 7.28044 25.7487 7.2848 23.9084 7.28131C23.9623 6.71364 24.0687 6.14772 24.2803 5.60403Z" fill="var(--fill-0, #2384C5)"/>
<path id="path38" d="M45.3607 5.3856C45.5897 5.38647 45.8193 5.38604 46.0494 5.38865C46.0484 6.06358 46.0468 6.7385 46.051 7.41343C45.8209 7.41561 45.5913 7.41474 45.3617 7.41212C45.3617 6.73676 45.3644 6.0614 45.3607 5.3856Z" fill="var(--fill-0, #2384C5)"/>
<path id="path40" d="M0.000727786 7.78442C5.28844 7.78442 10.5761 7.78442 15.8644 7.78442C15.9062 8.10227 15.9115 8.42273 15.9443 8.74144C15.9406 8.94156 15.9998 9.13907 15.967 9.33919C12.7709 9.32088 9.5732 9.34617 6.37761 9.32655C6.02214 8.87311 5.71004 8.39482 5.36726 7.93484C5.35192 7.92787 5.32071 7.91348 5.30537 7.9065C5.37942 8.38043 5.38207 8.86047 5.45137 9.33527C3.63643 9.33309 1.82149 9.32873 0.00654663 9.33745C-0.00667794 8.81992 0.00495965 8.30195 0.000727786 7.78442Z" fill="var(--fill-0, #2384C5)"/>
<path id="path42" d="M17.4568 7.78442C19.2834 7.78486 21.11 7.78399 22.9366 7.78486C22.9265 8.30021 22.9313 8.816 22.935 9.33135C21.1105 9.33789 19.2855 9.32742 17.4611 9.33658C17.4515 8.81905 17.46 8.30195 17.4568 7.78442Z" fill="var(--fill-0, #2384C5)"/>
<path id="path44" d="M23.9271 7.78711C25.7849 7.78362 27.6422 7.78144 29.4994 7.78798C29.5777 8.19913 29.7941 8.58934 30.1056 8.91591C30.2448 9.06763 30.4262 9.18797 30.5791 9.33011C28.4695 9.34144 26.3594 9.32226 24.2503 9.34013C24.0541 8.83786 23.9594 8.31292 23.9271 7.78711Z" fill="var(--fill-0, #2384C5)"/>
<path id="path46" d="M42.2434 7.98367C42.4957 7.79662 42.8575 7.84938 43.1675 7.85636C43.1649 8.00895 43.1654 8.16199 43.1622 8.31459C43.094 8.30238 43.0268 8.2893 42.9601 8.27579C42.8977 8.30936 42.7676 8.30936 42.775 8.3922C42.7655 8.45542 42.765 8.51864 42.7724 8.58186C42.9094 8.6054 43.0517 8.58796 43.1918 8.59101C43.1913 8.72181 43.1897 8.85261 43.1924 8.98385C43.0511 8.98341 42.9099 8.98298 42.7697 8.98341C42.7681 9.52928 42.7681 10.0752 42.7681 10.621C42.5396 10.621 42.3111 10.6188 42.0831 10.6215C42.0778 10.0752 42.0857 9.52885 42.0778 8.98254C41.9635 8.98298 41.8498 8.98341 41.7366 8.98428C41.7345 8.85436 41.7334 8.72486 41.7313 8.59494C41.8466 8.59232 41.9625 8.59145 42.0789 8.59058C42.0805 8.38479 42.0683 8.14847 42.2434 7.98367Z" fill="var(--fill-0, #2384C5)"/>
<path id="path48" d="M37.9627 7.87119C38.1971 7.87206 38.4319 7.87119 38.6673 7.87206C38.6689 8.78853 38.6774 9.705 38.6642 10.6215C38.4288 10.621 38.1934 10.6188 37.958 10.6219C37.9585 9.705 37.949 8.78766 37.9627 7.87119Z" fill="var(--fill-0, #2384C5)"/>
<path id="path50" d="M56.2029 7.84943C56.4246 7.849 56.6468 7.85074 56.8695 7.85118C56.8684 8.01773 56.8689 8.18428 56.8647 8.35083C56.6441 8.3517 56.4235 8.35127 56.2035 8.35127C56.2082 8.18385 56.2066 8.01686 56.2029 7.84943Z" fill="var(--fill-0, #2384C5)"/>
<path id="path52" d="M54.7047 8.02118C54.9222 8.02293 55.1401 8.02424 55.3586 8.02467C55.3575 8.2139 55.3559 8.40356 55.3612 8.59278C55.4913 8.59234 55.622 8.58973 55.7532 8.58885C55.7553 8.72053 55.7553 8.8522 55.7542 8.98387C55.622 8.98518 55.4903 8.983 55.3596 8.98212C55.3649 9.38063 55.3432 9.78 55.3697 10.1785C55.4935 10.2138 55.6236 10.2321 55.7558 10.2169C55.7548 10.3564 55.7553 10.4963 55.7532 10.6363C55.4416 10.6341 55.0824 10.6882 54.8195 10.5164C54.654 10.386 54.7058 10.1772 54.6968 10.008C54.6995 9.66839 54.6947 9.32831 54.6995 8.98866C54.5847 8.98256 54.4699 8.98169 54.3561 8.98038C54.3524 8.85132 54.3514 8.72183 54.3535 8.59278C54.463 8.5797 54.5958 8.62591 54.6931 8.5688C54.7053 8.38611 54.6894 8.20343 54.7047 8.02118Z" fill="var(--fill-0, #2384C5)"/>
<path id="path54" d="M40.1727 8.59061C40.498 8.48204 40.8979 8.50254 41.1872 8.67345C41.3809 8.78681 41.4507 8.99173 41.4465 9.1792C41.4438 9.66098 41.4491 10.1432 41.4438 10.625C41.2153 10.6145 40.9868 10.6149 40.7582 10.6206C40.7567 10.1567 40.7672 9.69238 40.7545 9.22891C40.7022 8.92197 40.1166 8.90758 39.9701 9.16482C39.9203 9.25115 39.8838 9.34445 39.8854 9.4408C39.8801 9.83582 39.8949 10.2304 39.878 10.625C39.6527 10.6167 39.4279 10.6163 39.203 10.6158C39.1893 9.93479 39.2057 9.25376 39.1935 8.57273C39.4173 8.5675 39.6416 8.56794 39.8653 8.57186C39.8606 8.65296 39.8526 8.73405 39.8457 8.81515C39.9568 8.74321 40.051 8.65208 40.1727 8.59061Z" fill="var(--fill-0, #2384C5)"/>
<path id="path56" d="M44.1943 8.5466C44.5619 8.47378 44.965 8.49558 45.3014 8.64339C45.6125 8.80732 45.8029 9.09552 45.8568 9.392C45.8949 9.71943 45.8468 10.0778 45.5823 10.3394C45.3485 10.6084 44.9205 10.6891 44.5407 10.6856C44.235 10.6594 43.9001 10.6093 43.6864 10.4096C43.2707 10.0316 43.2066 9.42862 43.5098 8.98783C43.6468 8.76765 43.8996 8.59979 44.1943 8.5466ZM44.4635 8.98826C44.2921 9.0166 44.1593 9.12734 44.0969 9.25814C43.9858 9.49533 43.9885 9.77393 44.1318 10.0011C44.2837 10.24 44.7 10.2675 44.9486 10.121C45.1163 9.99367 45.1544 9.7966 45.1734 9.61828C45.1676 9.43298 45.1348 9.22544 44.9592 9.09334C44.8354 8.98216 44.6349 8.95774 44.4635 8.98826Z" fill="var(--fill-0, #2384C5)"/>
<path id="path58" d="M47.1569 8.63115C47.3156 8.53523 47.5192 8.52651 47.7081 8.51561C47.7197 8.70788 47.715 8.90016 47.7155 9.09243C47.5071 9.09897 47.2569 9.05014 47.0982 9.19315C46.9315 9.30564 46.9336 9.49573 46.922 9.65749C46.9173 9.97882 46.9252 10.3006 46.9151 10.6223C46.6967 10.6223 46.4787 10.6193 46.2608 10.6193C46.2592 9.93696 46.2719 9.25375 46.2544 8.57141C46.465 8.56836 46.676 8.56923 46.8876 8.56836C46.8934 8.66995 46.8956 8.77197 46.9024 8.874C46.9807 8.78898 47.0553 8.69916 47.1569 8.63115Z" fill="var(--fill-0, #2384C5)"/>
<path id="path60" d="M49.0335 8.57403C49.3837 8.45718 49.8413 8.54176 50.0233 8.83214C50.2481 8.59452 50.6342 8.46241 50.9929 8.55354C51.3034 8.60237 51.5346 8.84217 51.5541 9.09722C51.5488 9.60473 51.5488 10.1127 51.5515 10.6206C51.3224 10.6219 51.0934 10.6189 50.8649 10.6162C50.8628 10.1659 50.8638 9.71547 50.8643 9.26508C50.876 9.11641 50.7004 8.97951 50.52 9.00305C50.2825 8.98081 50.1201 9.17788 50.1206 9.3549C50.1238 9.77477 50.1232 10.1946 50.1227 10.6145C49.8931 10.6223 49.6635 10.621 49.4345 10.6171C49.4398 10.2103 49.4324 9.80311 49.4387 9.39632C49.435 9.29517 49.4456 9.17527 49.3493 9.09897C49.1626 8.90364 48.6945 9.01308 48.696 9.27162C48.6913 9.72114 48.695 10.1711 48.6939 10.621C48.4654 10.621 48.2369 10.6193 48.0089 10.6206C48.0136 9.93652 47.9925 9.25157 48.0147 8.56792C48.2242 8.57664 48.4374 8.55266 48.6453 8.58275C48.6474 8.66297 48.6384 8.74319 48.6384 8.82342C48.7616 8.73229 48.8632 8.60847 49.0335 8.57403Z" fill="var(--fill-0, #2384C5)"/>
<path id="path62" d="M52.2444 8.72882C52.5592 8.52041 52.9935 8.49599 53.3786 8.54526C53.6135 8.58668 53.8853 8.63987 54.0208 8.82038C54.1562 8.99172 54.1091 9.20362 54.116 9.39633C54.1202 9.70371 54.1049 10.0115 54.1239 10.3185C54.1271 10.4288 54.2255 10.512 54.2847 10.6049C54.0351 10.6258 53.7822 10.6285 53.5325 10.6119C53.4844 10.5552 53.5034 10.478 53.4865 10.4144C53.3029 10.5103 53.1257 10.6328 52.903 10.6568C52.6719 10.6699 52.4174 10.6856 52.2191 10.5674C51.9043 10.417 51.8572 10.0638 51.9673 9.80312C52.0662 9.57596 52.3524 9.45039 52.6274 9.41246C52.8798 9.36537 53.1633 9.39677 53.3913 9.27905C53.5309 9.19926 53.4294 9.01178 53.2797 8.99565C53.1247 8.97341 52.9565 8.96469 52.8073 9.01178C52.7052 9.05974 52.6756 9.15784 52.6338 9.24068C52.419 9.24547 52.2042 9.24853 51.99 9.23893C51.9953 9.18269 52.0022 9.12688 52.0096 9.07108C52.0672 8.94943 52.1154 8.81427 52.2444 8.72882ZM52.8332 9.77521C52.6332 9.81881 52.4957 10.0255 52.637 10.1724C52.8057 10.3394 53.1093 10.2692 53.2902 10.1537C53.4743 10.0338 53.4505 9.82012 53.4664 9.64746C53.2643 9.7194 53.0443 9.73423 52.8332 9.77521Z" fill="var(--fill-0, #2384C5)"/>
<path id="path64" d="M57.8604 8.6072C58.2714 8.47553 58.7692 8.49515 59.1453 8.69222C59.3955 8.82912 59.4717 9.08288 59.5066 9.31352C59.2775 9.31047 59.0479 9.31265 58.8194 9.30741C58.7834 9.18446 58.7094 9.0493 58.5491 9.01094C58.4142 8.9996 58.2603 8.98303 58.1465 9.05759C57.9498 9.17269 57.9043 9.38633 57.8963 9.57207C57.8937 9.75693 57.9143 9.96185 58.0677 10.1079C58.1894 10.2252 58.3989 10.213 58.5676 10.196C58.7337 10.1402 58.7808 9.98408 58.8173 9.85459C59.0416 9.85546 59.2664 9.85416 59.4912 9.85764C59.4828 10.1589 59.25 10.4323 58.9406 10.581C58.584 10.7192 58.1592 10.7113 57.7974 10.5906C57.2711 10.3909 57.1568 9.84936 57.214 9.42077C57.2526 9.08723 57.4652 8.73756 57.8604 8.6072Z" fill="var(--fill-0, #2384C5)"/>
<path id="path66" d="M60.2896 8.59714C60.5424 8.49598 60.8334 8.52389 61.1058 8.52999C61.3624 8.56182 61.6422 8.64074 61.7924 8.82734C61.8855 8.93634 61.9024 9.07237 61.9331 9.19968C61.7231 9.2023 61.5126 9.19358 61.3036 9.21102C61.2349 9.11815 61.1793 9.00043 61.0381 8.96991C60.8471 8.91541 60.5488 8.91411 60.4583 9.09504C60.4573 9.15172 60.4874 9.21015 60.5572 9.23151C60.9646 9.36885 61.4618 9.34662 61.8062 9.59993C62.1341 9.86109 62.0273 10.3573 61.6364 10.5382C61.2216 10.7213 60.7143 10.7183 60.2716 10.6088C59.933 10.5229 59.6987 10.2347 59.7193 9.9448C59.9336 9.93957 60.1494 9.95265 60.3631 9.92998C60.4065 10.0054 60.4366 10.0874 60.4969 10.1563C60.6916 10.2757 60.9646 10.2775 61.1878 10.216C61.3248 10.1741 61.3703 10.0076 61.2227 9.95091C60.8286 9.80398 60.3599 9.81488 59.997 9.60647C59.8325 9.51012 59.7865 9.33528 59.8029 9.17832C59.7844 8.92152 60.014 8.69436 60.2896 8.59714Z" fill="var(--fill-0, #2384C5)"/>
<path id="path68" d="M56.2012 8.56929C56.4233 8.56929 56.646 8.56798 56.8687 8.57146C56.8566 9.25511 56.8772 9.93876 56.8592 10.6224C56.6413 10.6224 56.4233 10.6193 56.2059 10.6193C56.2033 9.93614 56.2133 9.25249 56.2012 8.56929Z" fill="var(--fill-0, #2384C5)"/>
<path id="path70" d="M0.00271998 9.82968C1.82612 9.83971 3.65005 9.82489 5.47399 9.83797C5.47822 10.1711 5.45918 10.5046 5.50678 10.8364C3.67121 10.8364 1.83564 10.8364 7.49089e-05 10.8364C0.00113287 10.5007 -0.00204086 10.165 0.00271998 9.82968Z" fill="var(--fill-0, #2384C5)"/>
<path id="path72" d="M6.79502 9.83103C9.8536 9.83191 12.9122 9.83845 15.9708 9.82929C15.9819 10.165 15.9734 10.5007 15.976 10.8364C13.2243 10.8369 10.4725 10.8356 7.72074 10.8369C7.54776 10.8652 7.49751 10.7035 7.41287 10.6158C7.2071 10.3542 6.99656 10.0948 6.79502 9.83103Z" fill="var(--fill-0, #2384C5)"/>
<path id="path74" d="M17.4591 9.82968C19.2825 9.84146 21.1064 9.82358 22.9298 9.83753C22.9346 10.1702 22.9277 10.5029 22.9319 10.8355C21.1069 10.8377 19.282 10.836 17.4564 10.8364C17.4575 10.5007 17.4543 10.165 17.4591 9.82968Z" fill="var(--fill-0, #2384C5)"/>
<path id="path76" d="M24.461 9.83152C28.0422 9.83894 31.6229 9.82455 35.2035 9.83763C35.2083 10.1703 35.2014 10.503 35.2057 10.8356C31.8202 10.8374 28.4342 10.8369 25.0487 10.8356C24.8392 10.5069 24.5937 10.1895 24.461 9.83152Z" fill="var(--fill-0, #2384C5)"/>
<path id="path78" d="M38.8355 11.1931C39.2148 11.0863 39.6369 11.0985 40.0141 11.2062C40.4743 11.3365 40.807 11.7137 40.8313 12.1126C40.5933 12.0865 40.3494 12.1196 40.1146 12.093C40.0395 11.9683 39.9993 11.8188 39.8485 11.7377C39.5644 11.5864 39.1296 11.5872 38.8979 11.8096C38.6636 12.0132 38.6086 12.3119 38.6149 12.5822C38.608 12.8386 38.663 13.1233 38.8995 13.3077C39.136 13.5148 39.5623 13.5396 39.8353 13.3665C39.9966 13.2802 40.0283 13.1119 40.1151 12.982C40.3452 12.9506 40.5854 12.9824 40.8192 12.9759C40.7695 13.3391 40.5113 13.687 40.1162 13.8605C39.6903 14.0476 39.1629 14.0362 38.7233 13.8876C38.3271 13.7498 38.0574 13.4363 37.9463 13.1019C37.8384 12.6938 37.8304 12.2521 38.0182 11.8589C38.1616 11.5554 38.4604 11.3021 38.8355 11.1931Z" fill="var(--fill-0, #2384C5)"/>
<path id="path80" d="M46.6553 11.3413C46.8759 11.3326 47.097 11.3378 47.3187 11.3387C47.3176 11.5271 47.3171 11.7158 47.3192 11.9046C47.4498 11.9064 47.581 11.9038 47.7122 11.9016C47.717 12.0354 47.717 12.1702 47.7064 12.304C47.5779 12.2992 47.4504 12.2953 47.3229 12.2922C47.3134 12.6205 47.3218 12.9497 47.3155 13.2785C47.3181 13.3513 47.306 13.4298 47.3472 13.4978C47.4678 13.5239 47.5937 13.5165 47.7175 13.5244C47.7154 13.6591 47.7154 13.7938 47.7112 13.9285C47.4229 13.9586 47.1081 13.9817 46.841 13.8675C46.6987 13.806 46.6574 13.6665 46.658 13.5444C46.6558 13.1634 46.659 12.7819 46.658 12.4008C46.6997 12.2281 46.4316 12.3145 46.3168 12.2948C46.3131 12.1654 46.312 12.0363 46.3125 11.9072C46.4231 11.8946 46.5537 11.9369 46.6532 11.8833C46.6654 11.7028 46.6548 11.5218 46.6553 11.3413Z" fill="var(--fill-0, #2384C5)"/>
<path id="path82" d="M2.26471e-06 11.3596C1.84192 11.3601 3.68437 11.3592 5.52628 11.3601C5.52734 11.5924 5.53475 11.8253 5.51994 12.0577C3.68013 12.0563 1.84033 12.0577 2.26471e-06 12.0572C2.26471e-06 11.8244 2.26471e-06 11.592 2.26471e-06 11.3596Z" fill="var(--fill-0, #2384C5)"/>
<path id="path84" d="M7.99902 11.3783C8.20427 11.3487 8.41375 11.3609 8.62111 11.3596C11.0729 11.3596 13.5242 11.3596 15.9756 11.3596C15.9756 11.592 15.9756 11.8248 15.9756 12.0572C13.5041 12.0589 11.0333 12.0541 8.56186 12.0594C8.36455 11.8379 8.20638 11.5941 7.99902 11.3783Z" fill="var(--fill-0, #2384C5)"/>
<path id="path86" d="M17.4581 11.3597C19.2846 11.3597 21.1112 11.3592 22.9378 11.3601C22.9283 11.592 22.932 11.824 22.9336 12.0564C21.1086 12.0586 19.2836 12.0568 17.4581 12.0573C17.4581 11.8244 17.4581 11.592 17.4581 11.3597Z" fill="var(--fill-0, #2384C5)"/>
<path id="path88" d="M25.4911 11.3784C25.6689 11.3526 25.8498 11.3583 26.0297 11.3596C29.0898 11.3601 32.1495 11.3592 35.2096 11.3601C35.2001 11.592 35.2038 11.824 35.2054 12.0563C32.2129 12.0598 29.2205 12.0542 26.2285 12.059C25.9535 11.8545 25.7403 11.6025 25.4911 11.3784Z" fill="var(--fill-0, #2384C5)"/>
<path id="path90" d="M41.198 12.3567C41.3784 12.0035 41.8645 11.8039 42.3168 11.8366C42.6792 11.8209 43.0616 11.9342 43.2817 12.1806C43.5139 12.4286 43.5551 12.7565 43.5361 13.06C42.9368 13.056 42.3374 13.0678 41.7386 13.0556C41.7524 13.2309 41.8439 13.4262 42.0618 13.4885C42.33 13.6067 42.6924 13.523 42.8352 13.2989C43.0627 13.3006 43.2901 13.2976 43.5176 13.3059C43.4287 13.6159 43.1182 13.8683 42.7447 13.9433C42.3057 14.0397 41.8021 13.9821 41.4435 13.7432C41.2091 13.5906 41.0959 13.3421 41.0779 13.1018C41.0748 12.8516 41.0525 12.5865 41.198 12.3567ZM42.0333 12.3375C41.8682 12.4025 41.8021 12.5533 41.7503 12.6872C42.1137 12.692 42.4781 12.6972 42.8421 12.6824C42.8204 12.3641 42.3554 12.1958 42.0333 12.3375Z" fill="var(--fill-0, #2384C5)"/>
<path id="path92" d="M44.7 11.926C45.0269 11.7865 45.4485 11.8056 45.7558 11.9722C45.9785 12.0938 46.0357 12.3306 46.05 12.5355C46.0484 12.9937 46.0489 13.4524 46.0473 13.9106C45.8188 13.908 45.5903 13.9085 45.3618 13.9106C45.3612 13.5257 45.3612 13.1407 45.3623 12.7557C45.3628 12.6471 45.3554 12.5338 45.2951 12.4352C45.2316 12.338 45.0893 12.3162 44.9756 12.28C44.8344 12.3118 44.6609 12.3254 44.5789 12.44C44.5032 12.5468 44.4561 12.6702 44.4604 12.7949C44.4614 13.1664 44.4625 13.5383 44.4604 13.9102C44.2398 13.9085 44.0197 13.9133 43.8002 13.9067C43.8018 13.2318 43.8002 12.5573 43.8007 11.8828C44.0107 11.8828 44.2207 11.8828 44.4313 11.8828C44.4355 11.9661 44.4408 12.0494 44.4514 12.1326C44.5365 12.0659 44.6011 11.98 44.7 11.926Z" fill="var(--fill-0, #2384C5)"/>
<path id="path94" d="M49.0512 11.8976C49.1898 11.8326 49.3522 11.8388 49.5067 11.8309C49.5167 12.0254 49.513 12.2198 49.512 12.4143C49.4416 12.4021 49.3723 12.389 49.3035 12.375C49.0835 12.4008 48.8333 12.4753 48.765 12.6702C48.673 13.0787 48.7397 13.4969 48.7217 13.9097C48.5 13.9089 48.2789 13.9084 48.0583 13.9115C48.0552 13.2361 48.0721 12.5603 48.0504 11.8854C48.2615 11.8819 48.473 11.8828 48.6846 11.8819C48.6905 11.9844 48.6942 12.0873 48.7047 12.1897C48.7994 12.0781 48.8952 11.9556 49.0512 11.8976Z" fill="var(--fill-0, #2384C5)"/>
<path id="path96" d="M49.9026 12.1628C50.1396 11.9252 50.5247 11.8123 50.8918 11.8367C51.289 11.8214 51.7059 11.9753 51.9069 12.2666C52.1037 12.4981 52.0852 12.7911 52.0804 13.0601C51.4837 13.0623 50.887 13.054 50.2909 13.0675C50.3125 13.2436 50.4199 13.425 50.6294 13.4939C50.8891 13.6029 51.2478 13.5275 51.3811 13.306C51.6096 13.299 51.8387 13.2977 52.0677 13.3016C51.9984 13.6238 51.6662 13.8758 51.2864 13.9478C50.9124 14.0201 50.4982 13.9975 50.1618 13.834C49.8603 13.7067 49.682 13.4381 49.6418 13.1682C49.581 12.8242 49.6249 12.4397 49.9026 12.1628ZM50.3094 12.6904C50.6712 12.6908 51.033 12.6917 51.3948 12.6886C51.3927 12.4318 51.0806 12.2583 50.7886 12.2918C50.5226 12.2953 50.3607 12.4959 50.3094 12.6904Z" fill="var(--fill-0, #2384C5)"/>
<path id="path98" d="M0.00608431 12.5569C1.8517 12.5577 3.69732 12.5621 5.54242 12.5551C5.58844 12.7278 5.58368 12.9048 5.58526 13.0805C3.72536 13.0888 1.86546 13.0761 0.00608431 13.0866C-0.00185043 12.91 -0.00185043 12.7334 0.00608431 12.5569Z" fill="var(--fill-0, #2384C5)"/>
<path id="path100" d="M8.96266 12.5565C11.3008 12.5648 13.6394 12.5487 15.9775 12.5648C15.9754 12.7392 15.9801 12.914 15.9674 13.0884C13.8182 13.0753 11.6684 13.0867 9.51862 13.0827C9.45937 13.0766 9.37791 13.0967 9.34194 13.0444C9.20652 12.8866 9.08697 12.72 8.96266 12.5565Z" fill="var(--fill-0, #2384C5)"/>
<path id="path102" d="M17.4619 12.5573C19.2848 12.5586 21.1077 12.5599 22.93 12.5568C22.9348 12.7321 22.9316 12.9078 22.9337 13.0831C21.1103 13.0857 19.2869 13.077 17.464 13.0874C17.4535 12.9109 17.4545 12.7338 17.4619 12.5573Z" fill="var(--fill-0, #2384C5)"/>
<path id="path104" d="M26.9221 12.5704C27.7341 12.5425 28.5482 12.566 29.3607 12.5582C31.3084 12.5578 33.2561 12.5595 35.2038 12.5573C35.207 12.7326 35.2044 12.9079 35.2065 13.0836C32.7795 13.0823 30.3531 13.0836 27.9261 13.0827C27.8457 13.0853 27.7642 13.0735 27.7008 13.0304C27.4389 12.8795 27.1633 12.7448 26.9221 12.5704Z" fill="var(--fill-0, #2384C5)"/>
<path id="path106" d="M29.0916 13.5749C31.1276 13.5959 33.1653 13.5741 35.2024 13.5863C35.2024 13.6861 35.2055 13.7864 35.2066 13.8867C33.5562 13.8897 31.9057 13.8893 30.2553 13.8871C29.8517 13.8404 29.447 13.7397 29.0916 13.5749Z" fill="var(--fill-0, #2384C5)"/>
<path id="path108" d="M0.00409055 13.5789C1.87034 13.592 3.73659 13.5868 5.60231 13.5785C5.6076 13.6953 5.6166 13.8135 5.59755 13.9303C3.73342 13.936 1.86823 13.9295 0.00356186 13.9338C0.000916949 13.8152 0.000916658 13.6971 0.00409055 13.5789Z" fill="var(--fill-0, #2384C5)"/>
<path id="path110" d="M9.78476 13.5898C11.8457 13.575 13.9082 13.5981 15.9696 13.5785C15.9749 13.6958 15.9839 13.8139 15.9649 13.9308C14.0082 13.9338 12.0504 13.9329 10.0932 13.9312C9.9535 13.8523 9.88844 13.7006 9.78476 13.5898Z" fill="var(--fill-0, #2384C5)"/>
<path id="path112" d="M17.4564 13.5871C19.2814 13.5854 21.1063 13.5828 22.9313 13.588C22.9319 13.7044 22.9324 13.8204 22.9308 13.9368C21.1074 13.9276 19.2835 13.9333 17.4601 13.9338C17.4574 13.8182 17.4564 13.7027 17.4564 13.5871Z" fill="var(--fill-0, #2384C5)"/>
</g>
</svg>
