<svg xmlns="http://www.w3.org/2000/svg" viewBox="0 0 55 14" fill="none" role="img" aria-label="UX4G">
  <g transform="translate(0.37, 0)">
    <path d="M7.94903 0H11.5956V8.91036C11.5956 9.9698 11.3508 10.8866 10.8611 11.6608C10.3757 12.4305 9.69799 13.0259 8.82792 13.447C7.9578 13.8635 6.94777 14.0718 5.79784 14.0718C4.63913 14.0718 3.62473 13.8635 2.75462 13.447C1.88451 13.0259 1.20679 12.4305 0.721448 11.6608C0.240483 10.8866 0 9.9698 0 8.91036V0H3.64659V8.58434C3.64659 9.01447 3.73841 9.39929 3.92205 9.73887C4.1057 10.0739 4.35929 10.3365 4.68285 10.5267C5.01078 10.7169 5.38244 10.8119 5.79784 10.8119C6.21755 10.8119 6.58924 10.7169 6.9128 10.5267C7.23635 10.3365 7.48996 10.0739 7.67361 9.73887C7.8572 9.39929 7.94903 9.01447 7.94903 8.58434V0ZM17.2377 0L19.4414 4.04768H19.5463L21.7762 0H25.8426L21.8287 6.95439L26 13.9088H21.8287L19.5463 9.77963H19.4414L17.159 13.9088H13.0139L17.1328 6.95439L13.1451 0H17.2377Z" fill="#4a2bc2"/>
  </g>
  <g transform="translate(28.35, 0)">
    <path d="M0 11.7443V8.85503L5.48031 0.187267H8.08749V4.03962H6.59767L3.64471 8.74803V8.85503H11.7321V11.7443H0ZM6.6243 13.8845V10.8615L6.70407 9.60414V0.187267H10.1625V13.8845H6.6243ZM22.1026 4.70843C22.0449 4.47212 21.954 4.26478 21.8299 4.08643C21.7058 3.90363 21.5505 3.7498 21.3643 3.62496C21.1825 3.49565 20.9697 3.39979 20.7258 3.33736C20.4864 3.27049 20.2226 3.23705 19.9344 3.23705C19.3136 3.23705 18.7838 3.38641 18.3448 3.68515C17.9103 3.98388 17.5777 4.41415 17.3472 4.97596C17.121 5.53775 17.008 6.21549 17.008 7.00915C17.008 7.8117 17.1166 8.49837 17.3339 9.06909C17.5512 9.63981 17.8748 10.0768 18.3049 10.38C18.735 10.6831 19.2693 10.8347 19.9078 10.8347C20.4709 10.8347 20.9387 10.7522 21.3111 10.5873C21.688 10.4223 21.9695 10.1882 22.1558 9.885C22.342 9.58184 22.4351 9.22511 22.4351 8.81495L23.0736 8.88181H19.961V6.23332H26V8.13276C26 9.3812 25.7362 10.4491 25.2085 11.3364C24.6853 12.2192 23.9626 12.8969 23.0404 13.3695C22.1225 13.8377 21.0694 14.0718 19.8812 14.0718C18.5554 14.0718 17.3915 13.7886 16.3894 13.2224C15.3874 12.6561 14.6048 11.8491 14.0417 10.8013C13.483 9.75352 13.2036 8.50725 13.2036 7.06265C13.2036 5.9301 13.3744 4.92691 13.7158 4.05299C14.0617 3.17908 14.5405 2.44116 15.1524 1.83923C15.7642 1.23284 16.4715 0.77582 17.274 0.468165C18.0766 0.156056 18.9367 0 19.8546 0C20.6616 0 21.4109 0.115927 22.1026 0.347782C22.7987 0.575176 23.4128 0.900664 23.9449 1.32425C24.4814 1.74337 24.9137 2.24052 25.2418 2.81569C25.5699 3.39087 25.7694 4.02178 25.8404 4.70843H22.1026Z" fill="#8e55b3"/>
  </g>
</svg>
